<svg width="115" height="92" viewBox="0 0 115 92" fill="none" xmlns="http://www.w3.org/2000/svg">
<path d="M83 41H81V43H83V41Z" fill="#C3DFF3"/>
<path d="M85.4136 63.4297H83.4136V65.4297H85.4136V63.4297Z" fill="#C3DFF3"/>
<path d="M85.4136 67.4297H83.4136V69.4297H85.4136V67.4297Z" fill="#C3DFF3"/>
<path d="M85.4136 71.4297H83.4136V73.4297H85.4136V71.4297Z" fill="#C3DFF3"/>
<path d="M85.4136 75.4297H83.4136V77.4297H85.4136V75.4297Z" fill="#C3DFF3"/>
<path d="M87 41H85V43H87V41Z" fill="#C3DFF3"/>
<path d="M7.41357 35.5454V75.4296C7.41357 77.0272 8.66249 78.3332 10.2373 78.4245L10.4136 78.4296H88.4136C90.0113 78.4296 91.3172 77.1806 91.4085 75.6058L91.4136 75.4296V44.3079H93.4136V75.4296C93.4136 78.1183 91.2913 80.3114 88.6305 80.4249L88.4136 80.4296H10.4136C7.72482 80.4296 5.53176 78.3073 5.41819 75.6465L5.41357 75.4296V35.5454H7.41357Z" fill="#C3DFF3"/>
<path d="M33.4136 82.4297H27.4136V84.4297H33.4136V82.4297Z" fill="#C3DFF3"/>
<path d="M33.4136 86.4297H27.4136V88.4297H33.4136V86.4297Z" fill="#C3DFF3"/>
<path d="M49.4136 82.4297H43.4136V84.4297H49.4136V82.4297Z" fill="#C3DFF3"/>
<path d="M67.4136 82.4297H63.4136V84.4297H67.4136V82.4297Z" fill="#C3DFF3"/>
<path d="M13.4136 82.4297H9.41357V84.4297H13.4136V82.4297Z" fill="#C3DFF3"/>
<path d="M67.4136 86.4297H63.4136V88.4297H67.4136V86.4297Z" fill="#C3DFF3"/>
<path d="M13.4136 86.4297H9.41357V88.4297H13.4136V86.4297Z" fill="#C3DFF3"/>
<path d="M49.4136 86.4297H43.4136V88.4297H49.4136V86.4297Z" fill="#C3DFF3"/>
<path d="M49.4136 77.4297H48.4136V78.4297V88.4297V89.4297H49.4136H59.4136H60.4136V88.4297V78.4297V77.4297H59.4136H49.4136Z" fill="#F3F8FE" stroke="#C3DFF3" stroke-width="2"/>
<path d="M34.4136 77.4297H33.4136V78.4297V86.4297V87.4297H34.4136H42.4136H43.4136V86.4297V78.4297V77.4297H42.4136H34.4136Z" fill="#F3F8FE" stroke="#C3DFF3" stroke-width="2"/>
<path d="M33.4136 77.4297H32.4136V78.4297V88.4297V89.4297H33.4136H43.4136H44.4136V88.4297V78.4297V77.4297H43.4136H33.4136Z" fill="#F3F8FE" stroke="#C3DFF3" stroke-width="2"/>
<path d="M17.4136 77.4297H16.4136V78.4297V88.4297V89.4297H17.4136H27.4136H28.4136V88.4297V78.4297V77.4297H27.4136H17.4136Z" fill="#F3F8FE" stroke="#C3DFF3" stroke-width="2"/>
<path fill-rule="evenodd" clip-rule="evenodd" d="M2.5 33C2.5 30.7909 4.29086 29 6.5 29C8.70914 29 10.5 30.7909 10.5 33C10.5 35.2091 8.70914 37 6.5 37C4.29086 37 2.5 35.2091 2.5 33ZM8.5 33C8.5 31.8954 7.60457 31 6.5 31C5.39543 31 4.5 31.8954 4.5 33C4.5 34.1046 5.39543 35 6.5 35C7.60457 35 8.5 34.1046 8.5 33Z" fill="#C3DFF3"/>
<path fill-rule="evenodd" clip-rule="evenodd" d="M89 42C89 39.7909 90.7909 38 93 38C95.2091 38 97 39.7909 97 42C97 44.2091 95.2091 46 93 46C90.7909 46 89 44.2091 89 42ZM95 42C95 40.8954 94.1046 40 93 40C91.8954 40 91 40.8954 91 42C91 43.1046 91.8954 44 93 44C94.1046 44 95 43.1046 95 42Z" fill="#C3DFF3"/>
<path fill-rule="evenodd" clip-rule="evenodd" d="M81 58C81 55.7909 82.7909 54 85 54C87.2091 54 89 55.7909 89 58C89 60.2091 87.2091 62 85 62C82.7909 62 81 60.2091 81 58ZM87 58C87 56.8954 86.1046 56 85 56C83.8954 56 83 56.8954 83 58C83 59.1046 83.8954 60 85 60C86.1046 60 87 59.1046 87 58Z" fill="#C3DFF3"/>
<path fill-rule="evenodd" clip-rule="evenodd" d="M79 48V15H68C65.2386 15 63 17.2386 63 20V53H74C76.7614 53 79 50.7614 79 48ZM68 17H77V48L76.9949 48.1763C76.9037 49.7511 75.5977 51 74 51H65V20L65.0051 19.8237C65.0963 18.2489 66.4023 17 68 17Z" fill="#C3DFF3"/>
<path fill-rule="evenodd" clip-rule="evenodd" d="M29.4136 25.4297V14.4297H18.4136C16.7567 14.4297 15.4136 15.7728 15.4136 17.4297V28.4297H26.4136C28.0704 28.4297 29.4136 27.0865 29.4136 25.4297ZM18.4136 16.4297L27.4128 16.429L27.4136 25.4297L27.4068 25.5463C27.3491 26.0436 26.9264 26.4297 26.4136 26.4297L17.4128 26.429L17.4136 17.4297L17.4203 17.3131C17.4781 16.8157 17.9007 16.4297 18.4136 16.4297Z" fill="#C3DFF3"/>
<path fill-rule="evenodd" clip-rule="evenodd" d="M25.4136 23.4297V18.4297H20.4136C19.8613 18.4297 19.4136 18.8774 19.4136 19.4297V24.4297H24.4136C24.9659 24.4297 25.4136 23.982 25.4136 23.4297ZM24.4128 19.429L24.4136 23.4297L20.4128 23.429L20.4136 19.4297L24.4128 19.429Z" fill="#C3DFF3"/>
<path fill-rule="evenodd" clip-rule="evenodd" d="M21.417 28.4297H23.4449V38.4297H21.417V28.4297Z" fill="#C3DFF3"/>
<path d="M79 11H77V17H79V11Z" fill="#C3DFF3"/>
<path d="M83 15H77V17H83V15Z" fill="#C3DFF3"/>
<path d="M88 15H85V17H88V15Z" fill="#C3DFF3"/>
<path d="M92 15H90V17H92V15Z" fill="#C3DFF3"/>
<path d="M79 6H77V9H79V6Z" fill="#C3DFF3"/>
<path d="M79 2H77V4H79V2Z" fill="#C3DFF3"/>
<path fill-rule="evenodd" clip-rule="evenodd" d="M75 47V19H69C67.8954 19 67 19.8954 67 21V49H73C74.1046 49 75 48.1046 75 47ZM69 20H74V47L73.9933 47.1166C73.9355 47.614 73.5128 48 73 48H68V21L68.0067 20.8834C68.0645 20.386 68.4872 20 69 20Z" fill="#C3DFF3"/>
<path d="M52 8.01904C54.1422 8.01904 55.8911 9.70301 55.9951 11.8194L56 12.019V23H54V12.019C54 10.9647 53.1841 10.1009 52.1493 10.0245L52 10.019H25C23.9456 10.019 23.0818 10.8349 23.0055 11.8698L23 12.019V15.9954H21V12.019C21 9.87685 22.684 8.12796 24.8004 8.02394L25 8.01904H52Z" fill="#C3DFF3"/>
<path d="M61 22H49V23H61V22Z" fill="#C3DFF3"/>
<path fill-rule="evenodd" clip-rule="evenodd" d="M41.4136 86.4297V80.4297H35.4136V86.4297H41.4136ZM36.4128 81.429H40.4128V85.429H36.4128V81.429Z" fill="#C3DFF3"/>
<rect x="8.41558" y="27.3377" width="57.1688" height="40.4026" fill="#F3F8FE"/>
<g filter="url(#filter0_i_2_2)">
<path d="M36.5974 64.5714C46.3807 64.5714 54.3117 56.7684 54.3117 47.1429C54.3117 37.5173 46.3807 29.7143 36.5974 29.7143C26.8141 29.7143 18.8831 37.5173 18.8831 47.1429C18.8831 56.7684 26.8141 64.5714 36.5974 64.5714Z" fill="#4B4EBB"/>
</g>
<mask id="mask0_2_2" style="mask-type:alpha" maskUnits="userSpaceOnUse" x="18" y="29" width="37" height="36">
<path d="M36.5974 64.5714C46.3807 64.5714 54.3117 56.7684 54.3117 47.1429C54.3117 37.5173 46.3807 29.7143 36.5974 29.7143C26.8141 29.7143 18.8831 37.5173 18.8831 47.1429C18.8831 56.7684 26.8141 64.5714 36.5974 64.5714Z" fill="white"/>
</mask>
<g mask="url(#mask0_2_2)">
<g style="mix-blend-mode:multiply" opacity="0.501302">
<g style="mix-blend-mode:multiply" opacity="0.501302">
<path d="M55.8795 60.3952L16.6065 38.0866L5.97796 56.1989L45.251 78.5075L55.8795 60.3952Z" fill="#4B4EBB"/>
</g>
</g>
<g style="mix-blend-mode:multiply" opacity="0.501302">
<g style="mix-blend-mode:multiply" opacity="0.501302">
<path d="M74.3174 37.3973L42.2511 5.84819L27.22 20.6368L59.2863 52.1859L74.3174 37.3973Z" fill="#4B4EBB"/>
</g>
</g>
<g style="mix-blend-mode:multiply" opacity="0.501302">
<g style="mix-blend-mode:multiply" opacity="0.501302">
<path d="M23.6774 64.5859L55.7437 33.0368L70.7748 47.8254L38.7085 79.3745L23.6774 64.5859Z" fill="#4B4EBB"/>
</g>
</g>
</g>
<g clip-path="url(#clip0_2_2)">
<path d="M64.125 24.8125H9.875C8.84729 24.8125 7.86166 25.2142 7.13496 25.9292C6.40826 26.6441 6 27.6139 6 28.625L6 66.75C6 67.7611 6.40826 68.7309 7.13496 69.4458C7.86166 70.1608 8.84729 70.5625 9.875 70.5625H31.1875V74.375H23.4375V78.1875H50.5625V74.375H42.8125V70.5625H64.125C65.1527 70.5625 66.1383 70.1608 66.865 69.4458C67.5917 68.7309 68 67.7611 68 66.75V28.625C68 27.6139 67.5917 26.6441 66.865 25.9292C66.1383 25.2142 65.1527 24.8125 64.125 24.8125ZM64.125 66.75H9.875V28.625H64.125V66.75Z" fill="#4B4EBB"/>
<path d="M36.5 43.875C38.6746 43.875 40.4375 42.1121 40.4375 39.9375C40.4375 37.7629 38.6746 36 36.5 36C34.3254 36 32.5625 37.7629 32.5625 39.9375C32.5625 42.1121 34.3254 43.875 36.5 43.875Z" fill="white"/>
<path d="M36.5 46.5C31.25 42.5625 27.3125 43.875 27.3125 43.875V54.375C27.3125 54.375 31.25 53.0625 36.5 57C41.75 53.0625 45.6875 54.375 45.6875 54.375V43.875C45.6875 43.875 41.75 42.5625 36.5 46.5Z" fill="white"/>
</g>
<defs>
<filter id="filter0_i_2_2" x="18.8831" y="29.7143" width="35.4286" height="35.8571" filterUnits="userSpaceOnUse" color-interpolation-filters="sRGB">
<feFlood flood-opacity="0" result="BackgroundImageFix"/>
<feBlend mode="normal" in="SourceGraphic" in2="BackgroundImageFix" result="shape"/>
<feColorMatrix in="SourceAlpha" type="matrix" values="0 0 0 0 0 0 0 0 0 0 0 0 0 0 0 0 0 0 127 0" result="hardAlpha"/>
<feOffset dy="1"/>
<feGaussianBlur stdDeviation="1.5"/>
<feComposite in2="hardAlpha" operator="arithmetic" k2="-1" k3="1"/>
<feColorMatrix type="matrix" values="0 0 0 0 0.294118 0 0 0 0 0.305882 0 0 0 0 0.733333 0 0 0 1 0"/>
<feBlend mode="normal" in2="shape" result="effect1_innerShadow_2_2"/>
</filter>
<clipPath id="clip0_2_2">
<rect width="62" height="61" fill="white" transform="translate(6 21)"/>
</clipPath>
</defs>
</svg>
