<svg width="40" height="40" viewBox="0 0 40 40" fill="none" xmlns="http://www.w3.org/2000/svg">
<g id="workstation-connect-wrireless-icon-blue-white">
<rect width="40" height="40" rx="8.33333" fill="white"/>
<g id="Workstation Connect Wireless 32x32">
<g id="Group 49420">
<path id="Union" d="M24.9805 6L28.9805 10H28.9902V14.0195L25.54 14.04L23 16.5801V24H19.04V26H21.0098L23.0098 28H13.0098L15.0098 26H17.04V24H10.0098L6 20V10L10 6H24.9805ZM21 16.1396C19.43 16.1396 17.9596 16.7504 16.8496 17.8604C15.7399 18.9703 15.1299 20.44 15.1299 22.0098H17.1299C17.1299 20.9699 17.5298 19.9995 18.2598 19.2695C18.9898 18.5396 19.9701 18.1396 21 18.1396V16.1396ZM20.9805 19.25C20.2806 19.25 19.5702 19.5198 19.0303 20.0596C18.4903 20.5995 18.2198 21.2998 18.2197 22.0098H20.9805V19.25ZM21 12.9902C18.6 12.9902 16.3299 13.9299 14.6299 15.6299C12.9299 17.3299 11.9902 19.59 11.9902 22H13.9902C13.9902 20.13 14.72 18.36 16.04 17.04C17.37 15.72 19.13 14.9902 21 14.9902V12.9902Z" fill="#1F69FF"/>
<path id="Vector" d="M32.15 15H25.99L23.99 17V31L25.99 33H31.99L33.99 31V17L32.15 15ZM27.99 16.5H29.99V17.5H27.99V16.5ZM31.99 31H25.99V19H31.99V31Z" fill="#1F69FF"/>
</g>
</g>
</g>
</svg>
