<svg width="115" height="92" viewBox="0 0 115 92" fill="none" xmlns="http://www.w3.org/2000/svg">
<path d="M100.5 20H98.5V26H100.5V20Z" fill="#C3DFF3"/>
<path d="M104.5 24H98.5V26H104.5V24Z" fill="#C3DFF3"/>
<path d="M109.5 24H106.5V26H109.5V24Z" fill="#C3DFF3"/>
<path d="M113.5 24H111.5V26H113.5V24Z" fill="#C3DFF3"/>
<path d="M100.5 15H98.5V18H100.5V15Z" fill="#C3DFF3"/>
<path d="M100.5 11H98.5V13H100.5V11Z" fill="#C3DFF3"/>
<path d="M45.5 65H43.5V81H45.5V65Z" fill="#C3DFF3"/>
<path d="M39.5 77H37.5V81H39.5V77Z" fill="#C3DFF3"/>
<path d="M49.5 73H51.5V77H49.5V73Z" fill="#C3DFF3"/>
<path d="M49.5 68H51.5V71H49.5V68Z" fill="#C3DFF3"/>
<path d="M49.5 64H51.5V66H49.5V64Z" fill="#C3DFF3"/>
<path d="M49.5 75H55.5V77H49.5V75Z" fill="#C3DFF3"/>
<path d="M58.5 79C60.1569 79 61.5 77.6569 61.5 76C61.5 74.3431 60.1569 73 58.5 73C56.8431 73 55.5 74.3431 55.5 76C55.5 77.6569 56.8431 79 58.5 79Z" stroke="#C3DFF3" stroke-width="2"/>
<path d="M39.5 72H37.5V75H39.5V72Z" fill="#C3DFF3"/>
<path d="M39.5 68H37.5V70H39.5V68Z" fill="#C3DFF3"/>
<path d="M39.5 79H32.5V81H39.5V79Z" fill="#C3DFF3"/>
<path fill-rule="evenodd" clip-rule="evenodd" d="M48.5 84C48.5 81.7909 46.7091 80 44.5 80C42.2909 80 40.5 81.7909 40.5 84C40.5 86.2091 42.2909 88 44.5 88C46.7091 88 48.5 86.2091 48.5 84ZM42.5 84C42.5 82.8954 43.3954 82 44.5 82C45.6046 82 46.5 82.8954 46.5 84C46.5 85.1046 45.6046 86 44.5 86C43.3954 86 42.5 85.1046 42.5 84Z" fill="#C3DFF3"/>
<path fill-rule="evenodd" clip-rule="evenodd" d="M33.5 80C33.5 77.7909 31.7091 76 29.5 76C27.2909 76 25.5 77.7909 25.5 80C25.5 82.2091 27.2909 84 29.5 84C31.7091 84 33.5 82.2091 33.5 80ZM27.5 80C27.5 78.8954 28.3954 78 29.5 78C30.6046 78 31.5 78.8954 31.5 80C31.5 81.1046 30.6046 82 29.5 82C28.3954 82 27.5 81.1046 27.5 80Z" fill="#C3DFF3"/>
<path fill-rule="evenodd" clip-rule="evenodd" d="M68.5 40H95.5C98.2614 40 100.5 37.7614 100.5 35V24H73.5C70.7386 24 68.5 26.2386 68.5 29V40ZM95.5 38H70.5V29C70.5 27.3431 71.8431 26 73.5 26H98.5V35C98.5 36.5977 97.2511 37.9037 95.6763 37.9949L95.5 38Z" fill="#C3DFF3"/>
<path fill-rule="evenodd" clip-rule="evenodd" d="M65.1446 32.012C66.6122 32.0667 68.0321 32.3074 69.3817 32.7113L78.1452 38.8588C80.1929 41.6095 81.4285 45.0006 81.497 48.677L81.5 49C81.5 58.2642 74.082 65.8183 64.8245 65.9969L64.5 66L17.4674 65.9995C8.57967 65.7097 1.5 58.4132 1.5 49.5C1.5 41.2414 7.59126 34.329 15.62 33.1704L15.877 33.135L15.9081 33.0215C17.1939 28.4316 21.348 25.1315 26.2076 25.0038L26.5 25C27.395 25 28.2763 25.1071 29.1296 25.3165L29.244 25.347L29.5048 24.9925C33.1654 20.1186 38.8722 17.1265 45.1015 17.0039L45.5 17C54.6139 17 62.4727 23.143 64.8044 31.7523L64.87 32.004L65.1446 32.012ZM63.1017 33.2154C61.34 24.9805 54.0303 19 45.5 19C39.3915 19 33.8056 22.065 30.4909 27.0616L30.068 27.699L29.3421 27.4577C28.4341 27.1557 27.4782 27 26.5 27C22.182 27 18.495 30.0641 17.6703 34.248L17.5244 34.9882L16.7726 35.0512C9.2962 35.6772 3.5 41.9486 3.5 49.5C3.5 57.3329 9.72239 63.7459 17.5 64H64.4904L64.7956 63.9972C72.9545 63.8397 79.5 57.1742 79.5 49C79.5 45.274 78.1414 41.8653 75.8936 39.2422C74.1773 37.2395 71.9427 35.6947 69.3984 34.8164C67.8659 34.2873 66.2211 34 64.5096 34L64.2154 34.0026L63.2761 34.031L63.1017 33.2154Z" fill="#C3DFF3"/>
<path fill-rule="evenodd" clip-rule="evenodd" d="M64.0794 33.0054C62.2445 24.43 54.6232 18 45.5 18C38.8849 18 33.0593 21.3806 29.6568 26.5085C28.6645 26.1786 27.6031 26 26.5 26C21.6428 26 17.5944 29.463 16.6891 34.0547C8.7422 34.7202 2.5 41.3811 2.5 49.5C2.5 57.8931 9.17099 64.7281 17.5 64.9921V65H18H64.5C73.3366 65 80.5 57.8366 80.5 49C80.5 40.1634 73.3366 33 64.5 33C64.3594 33 64.2191 33.0018 64.0794 33.0054Z" fill="#F3F8FE"/>
<path d="M64.0794 33.0054L63.1015 33.2147L63.2752 34.0265L64.1052 34.0051L64.0794 33.0054ZM29.6568 26.5085L29.3414 27.4574L30.0672 27.6987L30.4901 27.0614L29.6568 26.5085ZM16.6891 34.0547L16.7726 35.0512L17.5243 34.9882L17.6702 34.2481L16.6891 34.0547ZM17.5 64.9921H18.5V64.0233L17.5317 63.9926L17.5 64.9921ZM17.5 65H16.5V66H17.5V65ZM65.0572 32.7962C63.1258 23.7692 55.1045 17 45.5 17V19C54.1418 19 61.3633 25.0909 63.1015 33.2147L65.0572 32.7962ZM45.5 17C38.5357 17 32.4035 20.5604 28.8236 25.9556L30.4901 27.0614C33.7152 22.2009 39.234 19 45.5 19V17ZM29.9723 25.5596C28.8795 25.1963 27.7117 25 26.5 25V27C27.4945 27 28.4495 27.1609 29.3414 27.4574L29.9723 25.5596ZM26.5 25C21.1559 25 16.7039 28.8099 15.708 33.8612L17.6702 34.2481C18.4849 30.1161 22.1297 27 26.5 27V25ZM16.6057 33.0581C8.145 33.7667 1.5 40.8568 1.5 49.5H3.5C3.5 41.9054 9.3394 35.6736 16.7726 35.0512L16.6057 33.0581ZM1.5 49.5C1.5 58.4348 8.60136 65.7106 17.4683 65.9916L17.5317 63.9926C9.74062 63.7457 3.5 57.3514 3.5 49.5H1.5ZM16.5 64.9921V65H18.5V64.9921H16.5ZM17.5 66H18V64H17.5V66ZM18 66H64.5V64H18V66ZM79.5 49C79.5 57.2843 72.7843 64 64.5 64V66C73.8888 66 81.5 58.3888 81.5 49H79.5ZM64.5 34C72.7843 34 79.5 40.7157 79.5 49H81.5C81.5 39.6112 73.8888 32 64.5 32V34ZM64.1052 34.0051C64.2364 34.0017 64.368 34 64.5 34V32C64.3507 32 64.2019 32.0019 64.0536 32.0058L64.1052 34.0051Z" fill="#C3DFF3"/>
<mask id="mask0_2_71" style="mask-type:alpha" maskUnits="userSpaceOnUse" x="1" y="17" width="81" height="49">
<path fill-rule="evenodd" clip-rule="evenodd" d="M64.0794 33.0054C62.2445 24.43 54.6232 18 45.5 18C38.8849 18 33.0593 21.3806 29.6568 26.5085C28.6645 26.1786 27.6031 26 26.5 26C21.6428 26 17.5944 29.463 16.6891 34.0547C8.7422 34.7202 2.5 41.3811 2.5 49.5C2.5 57.8931 9.17099 64.7281 17.5 64.9921V65H18H64.5C73.3366 65 80.5 57.8366 80.5 49C80.5 40.1634 73.3366 33 64.5 33C64.3594 33 64.2191 33.0018 64.0794 33.0054Z" fill="white"/>
<path d="M64.0794 33.0054L63.1015 33.2147L63.2752 34.0265L64.1052 34.0051L64.0794 33.0054ZM29.6568 26.5085L29.3414 27.4574L30.0672 27.6987L30.4901 27.0614L29.6568 26.5085ZM16.6891 34.0547L16.7726 35.0512L17.5243 34.9882L17.6702 34.2481L16.6891 34.0547ZM17.5 64.9921H18.5V64.0233L17.5317 63.9926L17.5 64.9921ZM17.5 65H16.5V66H17.5V65ZM65.0572 32.7962C63.1258 23.7692 55.1045 17 45.5 17V19C54.1418 19 61.3633 25.0909 63.1015 33.2147L65.0572 32.7962ZM45.5 17C38.5357 17 32.4035 20.5604 28.8236 25.9556L30.4901 27.0614C33.7152 22.2009 39.234 19 45.5 19V17ZM29.9723 25.5596C28.8795 25.1963 27.7117 25 26.5 25V27C27.4945 27 28.4495 27.1609 29.3414 27.4574L29.9723 25.5596ZM26.5 25C21.1559 25 16.7039 28.8099 15.708 33.8612L17.6702 34.2481C18.4849 30.1161 22.1297 27 26.5 27V25ZM16.6057 33.0581C8.145 33.7667 1.5 40.8568 1.5 49.5H3.5C3.5 41.9054 9.3394 35.6736 16.7726 35.0512L16.6057 33.0581ZM1.5 49.5C1.5 58.4348 8.60136 65.7106 17.4683 65.9916L17.5317 63.9926C9.74062 63.7457 3.5 57.3514 3.5 49.5H1.5ZM16.5 64.9921V65H18.5V64.9921H16.5ZM17.5 66H18V64H17.5V66ZM18 66H64.5V64H18V66ZM79.5 49C79.5 57.2843 72.7843 64 64.5 64V66C73.8888 66 81.5 58.3888 81.5 49H79.5ZM64.5 34C72.7843 34 79.5 40.7157 79.5 49H81.5C81.5 39.6112 73.8888 32 64.5 32V34ZM64.1052 34.0051C64.2364 34.0017 64.368 34 64.5 34V32C64.3507 32 64.2019 32.0019 64.0536 32.0058L64.1052 34.0051Z" fill="white"/>
</mask>
<g mask="url(#mask0_2_71)">
<path fill-rule="evenodd" clip-rule="evenodd" d="M60.4919 37.499C60.4973 37.3333 60.5 37.167 60.5 37C60.5 28.7157 53.7843 22 45.5 22C39.5832 22 34.4666 25.4258 32.0253 30.402C30.7383 29.5176 29.1796 29 27.5 29C23.0817 29 19.5 32.5817 19.5 37V37.0098C19.3341 37.0033 19.1675 37 19 37C12.0964 37 6.5 42.5964 6.5 49.5C6.5 56.2361 11.8282 61.7277 18.5 61.9902V62H19H64H64.5V61.9902C71.1718 61.7277 76.5 56.2361 76.5 49.5C76.5 42.5964 70.9036 37 64 37C62.7821 37 61.6049 37.1742 60.4919 37.499Z" fill="#4B4EBB"/>
<mask id="mask1_2_71" style="mask-type:alpha" maskUnits="userSpaceOnUse" x="6" y="22" width="71" height="40">
<path fill-rule="evenodd" clip-rule="evenodd" d="M60.4919 37.499C60.4973 37.3333 60.5 37.167 60.5 37C60.5 28.7157 53.7843 22 45.5 22C39.5832 22 34.4666 25.4258 32.0253 30.402C30.7383 29.5176 29.1796 29 27.5 29C23.0817 29 19.5 32.5817 19.5 37V37.0098C19.3341 37.0033 19.1675 37 19 37C12.0964 37 6.5 42.5964 6.5 49.5C6.5 56.2361 11.8282 61.7277 18.5 61.9902V62H19H64H64.5V61.9902C71.1718 61.7277 76.5 56.2361 76.5 49.5C76.5 42.5964 70.9036 37 64 37C62.7821 37 61.6049 37.1742 60.4919 37.499Z" fill="white"/>
</mask>
<g mask="url(#mask1_2_71)">
<g style="mix-blend-mode:multiply" opacity="0.5">
<g style="mix-blend-mode:multiply" opacity="0.5">
<path d="M81.2033 69.3757L-0.203125 22.3757L-14.2031 46.6244L67.2033 93.6244L81.2033 69.3757Z" fill="#4B4EBB"/>
</g>
</g>
<g style="mix-blend-mode:multiply" opacity="0.5">
<g style="mix-blend-mode:multiply" opacity="0.5">
<path d="M19.7967 69.3757L101.203 22.3757L115.203 46.6244L33.7967 93.6244L19.7967 69.3757Z" fill="#4B4EBB"/>
</g>
</g>
<g style="mix-blend-mode:multiply" opacity="0.5">
<g style="mix-blend-mode:multiply" opacity="0.5">
<path d="M1.36644 76.3345L67.8345 9.86646L101.069 43.1005L34.6005 109.569L1.36644 76.3345Z" fill="#4B4EBB"/>
</g>
</g>
</g>
</g>
<path d="M70.5 29C70.5 27.3431 71.8431 26 73.5 26H98.5V35C98.5 36.6569 97.1569 38 95.5 38H70.5V29Z" fill="#F3F8FE"/>
<path fill-rule="evenodd" clip-rule="evenodd" d="M34.4932 63H54.5082V66H45.5068L45.5001 64H43.4901V66H34.4932V63Z" fill="#F3F8FE"/>
<path d="M51.5 64H49.5V66H51.5V64Z" fill="#C3DFF3"/>
<path d="M39.5 64H37.5V66H39.5V64Z" fill="#C3DFF3"/>
<path fill-rule="evenodd" clip-rule="evenodd" d="M72 36.5H94.5C95.8807 36.5 97 35.3807 97 34V27.5H74.5C73.1193 27.5 72 28.6193 72 30V36.5ZM94.5 35.5H73V30C73 29.1716 73.6716 28.5 74.5 28.5H96V34C96 34.7797 95.4051 35.4204 94.6445 35.4931L94.5 35.5Z" fill="#C3DFF3"/>
<g clip-path="url(#clip0_2_71)">
<path d="M37.5589 52.0627L43.2233 46.3978C43.7664 46.5437 44.3395 46.5339 44.8773 46.3697C45.4151 46.2056 45.896 45.8935 46.265 45.4692C46.634 45.0449 46.8764 44.5255 46.9644 43.9701C47.0524 43.4147 46.9826 42.8457 46.7628 42.3281L45.0608 44.0297C44.9198 44.1698 44.7291 44.2485 44.5304 44.2485C44.3316 44.2485 44.141 44.1698 44 44.0297L43.4698 43.5C43.3297 43.359 43.2511 43.1684 43.2511 42.9696C43.2511 42.7709 43.3297 42.5802 43.4698 42.4392L45.1719 40.7372C44.6543 40.5176 44.0854 40.4478 43.5301 40.5359C42.9748 40.624 42.4554 40.8663 42.0312 41.2353C41.607 41.6043 41.295 42.0851 41.1308 42.6229C40.9666 43.1606 40.9569 43.7337 41.1027 44.2767L35.4373 49.9411C35.156 50.2224 34.998 50.604 34.998 51.0019C34.998 51.3998 35.156 51.7813 35.4373 52.0627C35.7187 52.344 36.1003 52.5021 36.4981 52.5021C36.896 52.5021 37.2776 52.344 37.5589 52.0627V52.0627ZM35.968 50.4717C36.0728 50.3668 36.2065 50.2953 36.352 50.2663C36.4975 50.2374 36.6483 50.2522 36.7854 50.3089C36.9224 50.3657 37.0396 50.4618 37.122 50.5852C37.2045 50.7085 37.2485 50.8535 37.2485 51.0019C37.2485 51.1502 37.2045 51.2953 37.122 51.4186C37.0396 51.542 36.9224 51.6381 36.7854 51.6948C36.6483 51.7516 36.4975 51.7664 36.352 51.7374C36.2065 51.7085 36.0728 51.637 35.968 51.532C35.8274 51.3914 35.7485 51.2007 35.7485 51.0019C35.7485 50.8031 35.8274 50.6124 35.968 50.4717V50.4717Z" fill="white"/>
<path d="M45.0852 47.933L45.0505 47.8983C44.8784 47.7244 44.6047 47.4891 44.2967 47.2383C44.1988 47.2458 44.0999 47.25 44.0005 47.25C43.8229 47.2501 43.6456 47.2374 43.4699 47.212L41.3605 49.3214C41.7411 49.807 42.1391 50.2922 42.3992 50.5495L42.4339 50.5842C42.875 51.0159 44.4397 52.0598 44.4397 52.0598C44.579 52.1992 44.7444 52.3097 44.9264 52.3851C45.1084 52.4605 45.3035 52.4993 45.5005 52.4993C45.6975 52.4993 45.8926 52.4605 46.0746 52.3851C46.2566 52.3097 46.422 52.1992 46.5613 52.0598V52.0598C46.7006 51.9206 46.8111 51.7552 46.8865 51.5732C46.9619 51.3912 47.0007 51.1961 47.0007 50.9991C47.0007 50.8021 46.9619 50.607 46.8865 50.425C46.8111 50.243 46.7006 50.0776 46.5613 49.9383C46.5613 49.9383 45.5169 48.375 45.0852 47.933Z" fill="white"/>
<path d="M36.2009 42.3412L39.0889 45.2292L39.7292 44.5889L36.8413 41.7009V41.1708L35.5306 40.5L35.0005 41.0302L35.6708 42.3412H36.2009Z" fill="white"/>
<path d="M51.5 33H30.5C30.1022 33 29.7206 33.158 29.4393 33.4393C29.158 33.7206 29 34.1022 29 34.5V55.5C29 55.8978 29.158 56.2794 29.4393 56.5607C29.7206 56.842 30.1022 57 30.5 57H51.5C51.8978 57 52.2794 56.842 52.5607 56.5607C52.842 56.2794 53 55.8978 53 55.5V34.5C53 34.1022 52.842 33.7206 52.5607 33.4393C52.2794 33.158 51.8978 33 51.5 33V33ZM37.625 33.75C37.8475 33.75 38.065 33.816 38.25 33.9396C38.435 34.0632 38.5792 34.2389 38.6644 34.4445C38.7495 34.65 38.7718 34.8762 38.7284 35.0945C38.685 35.3127 38.5778 35.5132 38.4205 35.6705C38.2632 35.8278 38.0627 35.935 37.8445 35.9784C37.6262 36.0218 37.4 35.9995 37.1945 35.9144C36.9889 35.8292 36.8132 35.685 36.6896 35.5C36.566 35.315 36.5 35.0975 36.5 34.875C36.5 34.5766 36.6185 34.2905 36.8295 34.0795C37.0405 33.8685 37.3266 33.75 37.625 33.75ZM34.625 33.75C34.8475 33.75 35.065 33.816 35.25 33.9396C35.435 34.0632 35.5792 34.2389 35.6644 34.4445C35.7495 34.65 35.7718 34.8762 35.7284 35.0945C35.685 35.3127 35.5778 35.5132 35.4205 35.6705C35.2632 35.8278 35.0627 35.935 34.8445 35.9784C34.6262 36.0218 34.4 35.9995 34.1945 35.9144C33.9889 35.8292 33.8132 35.685 33.6896 35.5C33.566 35.315 33.5 35.0975 33.5 34.875C33.5 34.5766 33.6185 34.2905 33.8295 34.0795C34.0405 33.8685 34.3266 33.75 34.625 33.75V33.75ZM31.625 33.75C31.8475 33.75 32.065 33.816 32.25 33.9396C32.435 34.0632 32.5792 34.2389 32.6644 34.4445C32.7495 34.65 32.7718 34.8762 32.7284 35.0945C32.685 35.3127 32.5778 35.5132 32.4205 35.6705C32.2632 35.8278 32.0627 35.935 31.8445 35.9784C31.6262 36.0218 31.4 35.9995 31.1945 35.9144C30.9889 35.8292 30.8132 35.685 30.6896 35.5C30.566 35.315 30.5 35.0975 30.5 34.875C30.5 34.5766 30.6185 34.2905 30.8295 34.0795C31.0405 33.8685 31.3266 33.75 31.625 33.75V33.75ZM51.5 55.5H30.5V36.75H51.5V55.5Z" fill="white"/>
</g>
<defs>
<clipPath id="clip0_2_71">
<rect width="24" height="24" fill="white" transform="translate(29 33)"/>
</clipPath>
</defs>
</svg>
