<svg width="115" height="92" viewBox="0 0 115 92" fill="none" xmlns="http://www.w3.org/2000/svg">
<g id="Icon01">
<g id="Group 8">
<g id="Group 11 Copy" opacity="0.5">
<path id="Rectangle" d="M15 22H14V23V33C14 34.6569 15.3431 36 17 36H27H28V35V25C28 23.3431 26.6569 22 25 22H15Z" stroke="#6EB0DA" stroke-width="2"/>
<rect id="Rectangle Copy 25" x="64" y="22" width="14" height="14" stroke="#6EB0DA" stroke-width="2"/>
<path id="Rectangle Copy 14" d="M65 65H64V66V76C64 77.6569 65.3431 79 67 79H95H96V78V68C96 66.3431 94.6569 65 93 65H65Z" stroke="#6EB0DA" stroke-width="2"/>
<circle id="Oval" cx="14" cy="5" r="3" stroke="#6EB0DA" stroke-width="2"/>
<g id="Group 12">
<circle id="Oval Copy 6" cx="4" cy="79" r="3" stroke="#6EB0DA" stroke-width="2"/>
<rect id="Rectangle Copy 22" x="10" y="78" width="2" height="2" fill="#6EB0DA"/>
<rect id="Rectangle Copy 23" x="14" y="78" width="2" height="2" fill="#6EB0DA"/>
<rect id="Rectangle Copy 24" x="18" y="78" width="2" height="2" fill="#6EB0DA"/>
<rect id="Rectangle Copy 29" x="22" y="78" width="2" height="2" fill="#6EB0DA"/>
<rect id="Rectangle Copy 40" x="26" y="78" width="2" height="2" fill="#6EB0DA"/>
</g>
<rect id="Rectangle_2" x="13" y="17" width="2" height="6" fill="#6EB0DA"/>
<rect id="Rectangle Copy 11" x="95" y="78" width="2" height="6" fill="#6EB0DA"/>
<rect id="Rectangle Copy 7" x="13" y="13" width="2" height="3" fill="#6EB0DA"/>
<rect id="Rectangle Copy 26" x="66" y="17" width="2" height="3" fill="#6EB0DA"/>
<rect id="Rectangle Copy 32" x="80" y="32" width="3" height="2" fill="#6EB0DA"/>
<rect id="Rectangle Copy 33" x="80" y="28" width="3" height="2" fill="#6EB0DA"/>
<rect id="Rectangle Copy 34" x="80" y="24" width="3" height="2" fill="#6EB0DA"/>
<rect id="Rectangle Copy 27" x="70" y="17" width="2" height="3" fill="#6EB0DA"/>
<rect id="Rectangle Copy 28" x="74" y="17" width="2" height="3" fill="#6EB0DA"/>
<rect id="Rectangle Copy 12" x="95" y="85" width="2" height="3" fill="#6EB0DA"/>
<rect id="Rectangle Copy 15" x="2" y="21" width="2" height="2" fill="#6EB0DA"/>
<g id="Group 10">
<circle id="Oval Copy 6_2" cx="93" cy="52" r="3" stroke="#6EB0DA" stroke-width="2"/>
<rect id="Rectangle Copy 22_2" x="85" y="51" width="2" height="2" fill="#6EB0DA"/>
<rect id="Rectangle Copy 30" x="11" y="51" width="2" height="2" fill="#6EB0DA"/>
<rect id="Rectangle Copy 41" x="15" y="51" width="2" height="2" fill="#6EB0DA"/>
<rect id="Rectangle Copy 23_2" x="81" y="51" width="2" height="2" fill="#6EB0DA"/>
<rect id="Rectangle Copy 31" x="7" y="51" width="2" height="2" fill="#6EB0DA"/>
<rect id="Rectangle Copy 24_2" x="77" y="51" width="2" height="2" fill="#6EB0DA"/>
<rect id="Rectangle Copy 35" x="3" y="51" width="2" height="2" fill="#6EB0DA"/>
<rect id="Rectangle Copy 36" x="3" y="55" width="2" height="2" fill="#6EB0DA"/>
<rect id="Rectangle Copy 37" x="3" y="59" width="2" height="2" fill="#6EB0DA"/>
<rect id="Rectangle Copy 38" x="3" y="63" width="2" height="2" fill="#6EB0DA"/>
<rect id="Rectangle Copy 39" x="3" y="67" width="2" height="2" fill="#6EB0DA"/>
<rect id="Rectangle Copy 45" x="3" y="71" width="2" height="2" fill="#6EB0DA"/>
</g>
<rect id="Rectangle Copy 16" x="106" y="78" width="2" height="2" fill="#6EB0DA"/>
<rect id="Rectangle Copy 18" x="5" y="21" width="3" height="2" fill="#6EB0DA"/>
<rect id="Rectangle Copy 20" x="102" y="78" width="3" height="2" fill="#6EB0DA"/>
<rect id="Rectangle Copy 8" x="13" y="10" width="2" height="2" fill="#6EB0DA"/>
<rect id="Rectangle Copy 13" x="95" y="89" width="2" height="2" fill="#6EB0DA"/>
<rect id="Rectangle Copy 17" x="9" y="21" width="6" height="2" fill="#6EB0DA"/>
<rect id="Rectangle Copy 19" x="95" y="78" width="6" height="2" fill="#6EB0DA"/>
</g>
<circle id="Oval_2" cx="45" cy="50" r="29" fill="#F3F8FE" stroke="#B6D8EF" stroke-width="2"/>
<rect id="Rectangle_3" x="65" y="23" width="12" height="12" fill="#F3F8FE"/>
<path id="Rectangle Copy 46" d="M65 66H93C94.1046 66 95 66.8954 95 68V78H67C65.8954 78 65 77.1046 65 76V66Z" fill="#F3F8FE"/>
<path id="Rectangle Copy 21" d="M67.5 68.5H92C92.2761 68.5 92.5 68.7239 92.5 69V75.5H68C67.7239 75.5 67.5 75.2761 67.5 75V68.5Z" stroke="#B6D8EF"/>
<path id="Rectangle_4" fill-rule="evenodd" clip-rule="evenodd" d="M15 23H25C26.1046 23 27 23.8954 27 25V30.4145L24.0392 34.2268C23.6603 34.7146 23.0773 35 22.4596 35H17C15.8954 35 15 34.1046 15 33V23Z" fill="#F3F8FE"/>
<path id="Rectangle_5" d="M17 25H24C24.5523 25 25 25.4477 25 26V33H18C17.4477 33 17 32.5523 17 32V25Z" fill="#B4D8EE"/>
</g>
<g id="Rectangle Copy 10">
<g id="Mask" filter="url(#filter0_i)">
<circle cx="45" cy="50" r="25" fill="#4B4EBB"/>
</g>
<mask id="mask0" mask-type="alpha" maskUnits="userSpaceOnUse" x="20" y="25" width="50" height="50">
<circle id="Mask_2" cx="45" cy="50" r="25" fill="white"/>
</mask>
<g mask="url(#mask0)">
<g id="Rectangle_6" style="mix-blend-mode:multiply" opacity="0.501302">
<rect x="16.7871" y="37.0095" width="64" height="30" transform="rotate(30 16.7871 37.0095)" fill="#4B4EBB"/>
</g>
<g id="Rectangle Copy 43" style="mix-blend-mode:multiply" opacity="0.501302">
<rect x="52.979" y="-9.23413" width="64" height="30" transform="rotate(45 52.979 -9.23413)" fill="#4B4EBB"/>
</g>
<g id="Rectangle_7" style="mix-blend-mode:multiply" opacity="0.501302">
<rect width="64" height="30" transform="matrix(-0.707107 0.707107 0.707107 0.707107 72.021 29.7659)" fill="#4B4EBB"/>
</g>
</g>
</g>
<path id="Rectangle_8" fill-rule="evenodd" clip-rule="evenodd" d="M38.8877 38C38.8877 34.6863 41.574 32 44.8877 32C48.2014 32 50.8877 34.6863 50.8877 38V41C50.8877 44.3137 48.2014 47 44.8877 47C41.574 47 38.8877 44.3137 38.8877 41V38ZM48.8877 38C48.8877 35.7909 47.0968 34 44.8877 34C42.6786 34 40.8877 35.7909 40.8877 38V41C40.8877 43.2091 42.6786 45 44.8877 45C47.0968 45 48.8877 43.2091 48.8877 41V38Z" fill="#E7F2FD"/>
<path id="Path" d="M50.8397 48.7368C53.3111 48.7368 55.4897 50.3383 56.2573 52.6844L56.3271 52.9138L59.0153 62.4395C59.5203 64.2289 58.4915 66.095 56.7114 66.607C56.2915 66.7277 55.853 66.7646 55.4203 66.7162L55.2046 66.6849L39.3388 63.8508C39.0702 63.8028 38.8347 63.6476 38.6844 63.4238L38.6254 63.3238L36.194 58.597C35.9413 58.1058 36.1347 57.5029 36.6258 57.2503C37.0818 57.0157 37.6343 57.1657 37.9131 57.5815L37.9725 57.6821L40.1778 61.968L55.5563 64.7161C55.7067 64.7429 55.8601 64.7437 56.01 64.7186L56.1585 64.6849C56.8352 64.4903 57.247 63.8039 57.1206 63.1123L57.0905 62.9827L54.4023 53.457C53.9658 51.9101 52.6075 50.8263 51.037 50.7421L50.9218 50.739L50.1294 50.8883L49.2789 51.0382L48.4786 51.1682L47.7282 51.2783L47.0276 51.3684L46.3765 51.4386C45.8545 51.4887 45.3839 51.5179 44.9641 51.5263L44.7184 51.5288C44.2415 51.5288 43.692 51.4987 43.069 51.4385L42.4214 51.3684L41.7246 51.2782L40.9784 51.1681L40.1825 51.0381L39.3367 50.8881L38.5478 50.739L38.4319 50.7423C36.9684 50.8221 35.6857 51.7706 35.1663 53.1623L35.1003 53.3547L32.0779 62.9032C32.0306 63.0525 32.0191 63.2108 32.0442 63.3654C32.1265 63.8715 32.5753 64.2268 33.0755 64.2041L33.1917 64.192L36.9254 63.5852C37.4706 63.4966 37.9843 63.8667 38.0729 64.4118C38.1552 64.918 37.8419 65.3971 37.3603 65.5339L37.2463 65.5593L33.5125 66.1661C31.8771 66.4319 30.3359 65.3216 30.0701 63.6862C30.0073 63.2997 30.0209 62.9055 30.1092 62.5256L30.1711 62.2996L33.1927 52.7537C33.9182 50.4407 36.0023 48.8426 38.3925 48.7419L38.6325 48.7368L38.8241 48.7553L39.259 48.8391L40.0913 48.992C40.2258 49.0159 40.3583 49.039 40.4886 49.0613L41.2455 49.1855C41.4894 49.2237 41.7248 49.2587 41.9518 49.2905L42.6074 49.3764C43.4477 49.4781 44.152 49.5288 44.7184 49.5288C45.2884 49.5288 45.9972 49.4781 46.8426 49.3763L47.5023 49.2905C47.7307 49.2586 47.9676 49.2236 48.213 49.1854L48.9745 49.0612L49.7866 48.9178L50.6492 48.7551L50.8397 48.7368Z" fill="#E7F2FD"/>
<path id="Path 10" d="M50.8115 55.1073C51.3041 54.9647 51.8174 55.218 52.0112 55.6797L52.0501 55.7899L52.8987 58.722C53.0793 59.3459 52.6281 59.9613 52 59.9983L51.8803 59.9983L37.0257 59.1379C36.4743 59.1059 36.0533 58.6331 36.0852 58.0817C36.1149 57.5697 36.5247 57.1701 37.0245 57.1412L37.1414 57.1412L50.5842 57.919L50.1289 56.3459C49.9864 55.8533 50.2397 55.3399 50.7013 55.1462L50.8115 55.1073Z" fill="#E8F2FD"/>
</g>
<defs>
<filter id="filter0_i" x="20" y="25" width="50" height="51" filterUnits="userSpaceOnUse" color-interpolation-filters="sRGB">
<feFlood flood-opacity="0" result="BackgroundImageFix"/>
<feBlend mode="normal" in="SourceGraphic" in2="BackgroundImageFix" result="shape"/>
<feColorMatrix in="SourceAlpha" type="matrix" values="0 0 0 0 0 0 0 0 0 0 0 0 0 0 0 0 0 0 127 0" result="hardAlpha"/>
<feOffset dy="1"/>
<feGaussianBlur stdDeviation="1.5"/>
<feComposite in2="hardAlpha" operator="arithmetic" k2="-1" k3="1"/>
<feColorMatrix type="matrix" values="0 0 0 0 0.294118 0 0 0 0 0.305882 0 0 0 0 0.733333 0 0 0 1 0"/>
<feBlend mode="normal" in2="shape" result="effect1_innerShadow"/>
</filter>
</defs>
</svg>
