<svg width="115" height="92" viewBox="0 0 115 92" fill="none" xmlns="http://www.w3.org/2000/svg">
<g id="icon02">
<rect id="Rectangle" x="98.5" y="20" width="2" height="6" fill="#C3DFF3"/>
<rect id="Rectangle_2" x="98.5" y="24" width="6" height="2" fill="#C3DFF3"/>
<rect id="Rectangle Copy 56" x="106.5" y="24" width="3" height="2" fill="#C3DFF3"/>
<rect id="Rectangle Copy 57" x="111.5" y="24" width="2" height="2" fill="#C3DFF3"/>
<rect id="Rectangle Copy 54" x="98.5" y="15" width="2" height="3" fill="#C3DFF3"/>
<rect id="Rectangle Copy 55" x="98.5" y="11" width="2" height="2" fill="#C3DFF3"/>
<rect id="Rectangle_3" x="43.5" y="65" width="2" height="16" fill="#C3DFF3"/>
<rect id="Rectangle Copy 44" x="37.5" y="77" width="2" height="4" fill="#C3DFF3"/>
<g id="Group 11">
<rect id="Rectangle Copy 50" width="2" height="4" transform="matrix(-1 0 0 1 51.5 73)" fill="#C3DFF3"/>
<rect id="Rectangle Copy 51" width="2" height="3" transform="matrix(-1 0 0 1 51.5 68)" fill="#C3DFF3"/>
<rect id="Rectangle Copy 52" width="2" height="2" transform="matrix(-1 0 0 1 51.5 64)" fill="#C3DFF3"/>
<rect id="Rectangle Copy 53" width="6" height="2" transform="matrix(-1 0 0 1 55.5 75)" fill="#C3DFF3"/>
<circle id="Oval Copy 10" cx="58.5" cy="76" r="3" stroke="#C3DFF3" stroke-width="2"/>
</g>
<rect id="Rectangle Copy 48" x="37.5" y="72" width="2" height="3" fill="#C3DFF3"/>
<rect id="Rectangle Copy 49" x="37.5" y="68" width="2" height="2" fill="#C3DFF3"/>
<rect id="Rectangle Copy 47" x="32.5" y="79" width="7" height="2" fill="#C3DFF3"/>
<path id="Oval Copy 6" fill-rule="evenodd" clip-rule="evenodd" d="M48.5 84C48.5 81.7909 46.7091 80 44.5 80C42.2909 80 40.5 81.7909 40.5 84C40.5 86.2091 42.2909 88 44.5 88C46.7091 88 48.5 86.2091 48.5 84ZM42.5 84C42.5 82.8954 43.3954 82 44.5 82C45.6046 82 46.5 82.8954 46.5 84C46.5 85.1046 45.6046 86 44.5 86C43.3954 86 42.5 85.1046 42.5 84Z" fill="#C3DFF3"/>
<path id="Oval Copy 9" fill-rule="evenodd" clip-rule="evenodd" d="M33.5 80C33.5 77.7909 31.7091 76 29.5 76C27.2909 76 25.5 77.7909 25.5 80C25.5 82.2091 27.2909 84 29.5 84C31.7091 84 33.5 82.2091 33.5 80ZM27.5 80C27.5 78.8954 28.3954 78 29.5 78C30.6046 78 31.5 78.8954 31.5 80C31.5 81.1046 30.6046 82 29.5 82C28.3954 82 27.5 81.1046 27.5 80Z" fill="#C3DFF3"/>
<path id="Rectangle_4" fill-rule="evenodd" clip-rule="evenodd" d="M68.5 40H95.5C98.2614 40 100.5 37.7614 100.5 35V24H73.5C70.7386 24 68.5 26.2386 68.5 29V40ZM95.5 38H70.5V29C70.5 27.3431 71.8431 26 73.5 26H98.5V35C98.5 36.5977 97.2511 37.9037 95.6763 37.9949L95.5 38Z" fill="#C3DFF3"/>
<path id="Mask" fill-rule="evenodd" clip-rule="evenodd" d="M65.1446 32.012C66.6122 32.0667 68.0321 32.3074 69.3817 32.7113L78.1452 38.8588C80.1929 41.6095 81.4285 45.0006 81.497 48.677L81.5 49C81.5 58.2642 74.082 65.8183 64.8245 65.9969L64.5 66L17.4674 65.9995C8.57967 65.7097 1.5 58.4132 1.5 49.5C1.5 41.2414 7.59126 34.329 15.62 33.1704L15.877 33.135L15.9081 33.0215C17.1939 28.4316 21.348 25.1315 26.2076 25.0038L26.5 25C27.395 25 28.2763 25.1071 29.1296 25.3165L29.244 25.347L29.5048 24.9925C33.1654 20.1186 38.8722 17.1265 45.1015 17.0039L45.5 17C54.6139 17 62.4727 23.143 64.8044 31.7523L64.87 32.004L65.1446 32.012ZM63.1017 33.2154C61.34 24.9805 54.0303 19 45.5 19C39.3915 19 33.8056 22.065 30.4909 27.0616L30.068 27.699L29.3421 27.4577C28.4341 27.1557 27.4782 27 26.5 27C22.182 27 18.495 30.0641 17.6703 34.248L17.5244 34.9882L16.7726 35.0512C9.2962 35.6772 3.5 41.9486 3.5 49.5C3.5 57.3329 9.72239 63.7459 17.5 64L64.4904 64L64.7956 63.9972C72.9545 63.8397 79.5 57.1742 79.5 49C79.5 45.274 78.1414 41.8653 75.8936 39.2422C74.1773 37.2395 71.9427 35.6947 69.3984 34.8164C67.8659 34.2873 66.2211 34 64.5096 34L64.2154 34.0026L63.2761 34.031L63.1017 33.2154Z" fill="#C3DFF3"/>
<g id="Mask_2">
<path fill-rule="evenodd" clip-rule="evenodd" d="M64.0794 33.0054C62.2445 24.43 54.6232 18 45.5 18C38.8849 18 33.0593 21.3806 29.6568 26.5085C28.6645 26.1786 27.6031 26 26.5 26C21.6428 26 17.5944 29.463 16.6891 34.0547C8.7422 34.7202 2.5 41.3811 2.5 49.5C2.5 57.8931 9.17099 64.7281 17.5 64.9921V65H18H64.5C73.3366 65 80.5 57.8366 80.5 49C80.5 40.1634 73.3366 33 64.5 33C64.3594 33 64.2191 33.0018 64.0794 33.0054Z" fill="#F3F8FE"/>
<path d="M64.0794 33.0054L63.1015 33.2147L63.2752 34.0265L64.1052 34.0051L64.0794 33.0054ZM29.6568 26.5085L29.3414 27.4574L30.0672 27.6987L30.4901 27.0614L29.6568 26.5085ZM16.6891 34.0547L16.7726 35.0512L17.5243 34.9882L17.6702 34.2481L16.6891 34.0547ZM17.5 64.9921H18.5V64.0233L17.5317 63.9926L17.5 64.9921ZM17.5 65H16.5V66H17.5V65ZM65.0572 32.7962C63.1258 23.7692 55.1045 17 45.5 17V19C54.1418 19 61.3633 25.0909 63.1015 33.2147L65.0572 32.7962ZM45.5 17C38.5357 17 32.4035 20.5604 28.8236 25.9556L30.4901 27.0614C33.7152 22.2009 39.234 19 45.5 19V17ZM29.9723 25.5596C28.8795 25.1963 27.7117 25 26.5 25V27C27.4945 27 28.4495 27.1609 29.3414 27.4574L29.9723 25.5596ZM26.5 25C21.1559 25 16.7039 28.8099 15.708 33.8612L17.6702 34.2481C18.4849 30.1161 22.1297 27 26.5 27V25ZM16.6057 33.0581C8.145 33.7667 1.5 40.8568 1.5 49.5H3.5C3.5 41.9054 9.3394 35.6736 16.7726 35.0512L16.6057 33.0581ZM1.5 49.5C1.5 58.4348 8.60136 65.7106 17.4683 65.9916L17.5317 63.9926C9.74062 63.7457 3.5 57.3514 3.5 49.5H1.5ZM16.5 64.9921V65H18.5V64.9921H16.5ZM17.5 66H18V64H17.5V66ZM18 66H64.5V64H18V66ZM79.5 49C79.5 57.2843 72.7843 64 64.5 64V66C73.8888 66 81.5 58.3888 81.5 49H79.5ZM64.5 34C72.7843 34 79.5 40.7157 79.5 49H81.5C81.5 39.6112 73.8888 32 64.5 32V34ZM64.1052 34.0051C64.2364 34.0017 64.368 34 64.5 34V32C64.3507 32 64.2019 32.0019 64.0536 32.0058L64.1052 34.0051Z" fill="#C3DFF3"/>
</g>
<g id="Object">
<mask id="mask0" mask-type="alpha" maskUnits="userSpaceOnUse" x="1" y="17" width="81" height="49">
<g id="Mask_3">
<path fill-rule="evenodd" clip-rule="evenodd" d="M64.0794 33.0054C62.2445 24.43 54.6232 18 45.5 18C38.8849 18 33.0593 21.3806 29.6568 26.5085C28.6645 26.1786 27.6031 26 26.5 26C21.6428 26 17.5944 29.463 16.6891 34.0547C8.7422 34.7202 2.5 41.3811 2.5 49.5C2.5 57.8931 9.17099 64.7281 17.5 64.9921V65H18H64.5C73.3366 65 80.5 57.8366 80.5 49C80.5 40.1634 73.3366 33 64.5 33C64.3594 33 64.2191 33.0018 64.0794 33.0054Z" fill="white"/>
<path d="M64.0794 33.0054L63.1015 33.2147L63.2752 34.0265L64.1052 34.0051L64.0794 33.0054ZM29.6568 26.5085L29.3414 27.4574L30.0672 27.6987L30.4901 27.0614L29.6568 26.5085ZM16.6891 34.0547L16.7726 35.0512L17.5243 34.9882L17.6702 34.2481L16.6891 34.0547ZM17.5 64.9921H18.5V64.0233L17.5317 63.9926L17.5 64.9921ZM17.5 65H16.5V66H17.5V65ZM65.0572 32.7962C63.1258 23.7692 55.1045 17 45.5 17V19C54.1418 19 61.3633 25.0909 63.1015 33.2147L65.0572 32.7962ZM45.5 17C38.5357 17 32.4035 20.5604 28.8236 25.9556L30.4901 27.0614C33.7152 22.2009 39.234 19 45.5 19V17ZM29.9723 25.5596C28.8795 25.1963 27.7117 25 26.5 25V27C27.4945 27 28.4495 27.1609 29.3414 27.4574L29.9723 25.5596ZM26.5 25C21.1559 25 16.7039 28.8099 15.708 33.8612L17.6702 34.2481C18.4849 30.1161 22.1297 27 26.5 27V25ZM16.6057 33.0581C8.145 33.7667 1.5 40.8568 1.5 49.5H3.5C3.5 41.9054 9.3394 35.6736 16.7726 35.0512L16.6057 33.0581ZM1.5 49.5C1.5 58.4348 8.60136 65.7106 17.4683 65.9916L17.5317 63.9926C9.74062 63.7457 3.5 57.3514 3.5 49.5H1.5ZM16.5 64.9921V65H18.5V64.9921H16.5ZM17.5 66H18V64H17.5V66ZM18 66H64.5V64H18V66ZM79.5 49C79.5 57.2843 72.7843 64 64.5 64V66C73.8888 66 81.5 58.3888 81.5 49H79.5ZM64.5 34C72.7843 34 79.5 40.7157 79.5 49H81.5C81.5 39.6112 73.8888 32 64.5 32V34ZM64.1052 34.0051C64.2364 34.0017 64.368 34 64.5 34V32C64.3507 32 64.2019 32.0019 64.0536 32.0058L64.1052 34.0051Z" fill="white"/>
</g>
</mask>
<g mask="url(#mask0)">
<g id="Rectangle_5">
<path id="Mask_4" fill-rule="evenodd" clip-rule="evenodd" d="M60.4919 37.499C60.4973 37.3333 60.5 37.167 60.5 37C60.5 28.7157 53.7843 22 45.5 22C39.5832 22 34.4666 25.4258 32.0253 30.402C30.7383 29.5176 29.1796 29 27.5 29C23.0817 29 19.5 32.5817 19.5 37L19.5 37.0098C19.3341 37.0033 19.1675 37 19 37C12.0964 37 6.5 42.5964 6.5 49.5C6.5 56.2361 11.8282 61.7277 18.5 61.9902V62H19H64H64.5V61.9902C71.1718 61.7277 76.5 56.2361 76.5 49.5C76.5 42.5964 70.9036 37 64 37C62.7821 37 61.6049 37.1742 60.4919 37.499Z" fill="#4B4EBB"/>
<mask id="mask1" mask-type="alpha" maskUnits="userSpaceOnUse" x="6" y="22" width="71" height="40">
<path id="Mask_5" fill-rule="evenodd" clip-rule="evenodd" d="M60.4919 37.499C60.4973 37.3333 60.5 37.167 60.5 37C60.5 28.7157 53.7843 22 45.5 22C39.5832 22 34.4666 25.4258 32.0253 30.402C30.7383 29.5176 29.1796 29 27.5 29C23.0817 29 19.5 32.5817 19.5 37L19.5 37.0098C19.3341 37.0033 19.1675 37 19 37C12.0964 37 6.5 42.5964 6.5 49.5C6.5 56.2361 11.8282 61.7277 18.5 61.9902V62H19H64H64.5V61.9902C71.1718 61.7277 76.5 56.2361 76.5 49.5C76.5 42.5964 70.9036 37 64 37C62.7821 37 61.6049 37.1742 60.4919 37.499Z" fill="white"/>
</mask>
<g mask="url(#mask1)">
<g id="Rectangle_6" style="mix-blend-mode:multiply" opacity="0.5">
<rect x="-0.203125" y="22.3757" width="94" height="28" transform="rotate(30 -0.203125 22.3757)" fill="#4B4EBB"/>
</g>
<g id="Rectangle Copy 6" style="mix-blend-mode:multiply" opacity="0.5">
<rect width="94" height="28" transform="matrix(-0.866025 0.5 0.5 0.866025 101.203 22.3757)" fill="#4B4EBB"/>
</g>
<g id="Rectangle Copy 9" style="mix-blend-mode:multiply" opacity="0.5">
<rect width="94" height="47" transform="matrix(-0.707107 0.707107 0.707107 0.707107 67.8345 9.86646)" fill="#4B4EBB"/>
</g>
</g>
</g>
<path id="Path 11" fill-rule="evenodd" clip-rule="evenodd" d="M38.4808 44.601L48.8857 33.3589C49.2757 32.9374 49.9398 32.9303 50.3388 33.3432L54.1879 37.3269C54.5593 37.7112 54.5628 38.3196 54.1959 38.7082L39.2269 54.5646C38.8579 54.9556 38.2458 54.9848 37.8413 54.6307L28.841 46.7553C28.4237 46.3901 28.3832 45.7551 28.7507 45.3399L32.751 40.8208C33.1185 40.4056 33.7537 40.3688 34.1668 40.7386L38.4808 44.601ZM52.0858 38.029L49.6348 35.493L39.2813 46.6819C38.9106 47.0825 38.287 47.1118 37.8804 46.7477L33.5818 42.899L30.9148 45.912L38.4328 52.491L52.0858 38.029Z" fill="white"/>
</g>
</g>
<path id="Rectangle_7" d="M70.5 29C70.5 27.3431 71.8431 26 73.5 26H98.5V35C98.5 36.6569 97.1569 38 95.5 38H70.5V29Z" fill="#F3F8FE"/>
<path id="Rectangle_8" fill-rule="evenodd" clip-rule="evenodd" d="M34.4932 63H54.5082V66H45.5068L45.5001 64H43.4901V66H34.4932V63Z" fill="#F3F8FE"/>
<rect id="Rectangle Copy 69" x="49.5" y="64" width="2" height="2" fill="#C3DFF3"/>
<rect id="Rectangle Copy 70" x="37.5" y="64" width="2" height="2" fill="#C3DFF3"/>
<path id="Rectangle_9" fill-rule="evenodd" clip-rule="evenodd" d="M72 36.5H94.5C95.8807 36.5 97 35.3807 97 34V27.5H74.5C73.1193 27.5 72 28.6193 72 30V36.5ZM94.5 35.5H73V30C73 29.1716 73.6716 28.5 74.5 28.5H96V34C96 34.7797 95.4051 35.4204 94.6445 35.4931L94.5 35.5Z" fill="#C3DFF3"/>
</g>
</svg>
