<svg width="115" height="92" viewBox="0 0 115 92" fill="none" xmlns="http://www.w3.org/2000/svg">
<g id="icon03">
<rect id="Rectangle" x="81" y="41" width="2" height="2" fill="#C3DFF3"/>
<rect id="Rectangle Copy 2" x="83.4136" y="63.4297" width="2" height="2" fill="#C3DFF3"/>
<rect id="Rectangle Copy 3" x="83.4136" y="67.4297" width="2" height="2" fill="#C3DFF3"/>
<rect id="Rectangle Copy 4" x="83.4136" y="71.4297" width="2" height="2" fill="#C3DFF3"/>
<rect id="Rectangle Copy 102" x="83.4136" y="75.4297" width="2" height="2" fill="#C3DFF3"/>
<rect id="Rectangle Copy 103" x="85" y="41" width="2" height="2" fill="#C3DFF3"/>
<path id="Path" d="M7.41357 35.5454V75.4296C7.41357 77.0272 8.66249 78.3332 10.2373 78.4245L10.4136 78.4296H88.4136C90.0113 78.4296 91.3172 77.1806 91.4085 75.6058L91.4136 75.4296V44.3079H93.4136V75.4296C93.4136 78.1183 91.2913 80.3114 88.6305 80.4249L88.4136 80.4296H10.4136C7.72482 80.4296 5.53176 78.3073 5.41819 75.6465L5.41357 75.4296V35.5454H7.41357Z" fill="#C3DFF3"/>
<rect id="Rectangle_2" x="27.4136" y="82.4297" width="6" height="2" fill="#C3DFF3"/>
<rect id="Rectangle Copy 99" x="27.4136" y="86.4297" width="6" height="2" fill="#C3DFF3"/>
<rect id="Rectangle Copy 98" x="43.4136" y="82.4297" width="6" height="2" fill="#C3DFF3"/>
<rect id="Rectangle Copy 101" x="63.4136" y="82.4297" width="4" height="2" fill="#C3DFF3"/>
<rect id="Rectangle Copy 105" x="9.41357" y="82.4297" width="4" height="2" fill="#C3DFF3"/>
<rect id="Rectangle Copy 104" x="63.4136" y="86.4297" width="4" height="2" fill="#C3DFF3"/>
<rect id="Rectangle Copy 106" x="9.41357" y="86.4297" width="4" height="2" fill="#C3DFF3"/>
<rect id="Rectangle Copy 100" x="43.4136" y="86.4297" width="6" height="2" fill="#C3DFF3"/>
<g id="Group">
<path id="Rectangle Copy 25" d="M49.4136 77.4297H48.4136V78.4297V88.4297V89.4297H49.4136H59.4136H60.4136V88.4297V78.4297V77.4297H59.4136H49.4136Z" fill="#F3F8FE" stroke="#C3DFF3" stroke-width="2"/>
</g>
<g id="Group Copy">
<path id="Rectangle Copy 25_2" d="M34.4136 77.4297H33.4136V78.4297V86.4297V87.4297H34.4136H42.4136H43.4136V86.4297V78.4297V77.4297H42.4136H34.4136Z" fill="#F3F8FE" stroke="#C3DFF3" stroke-width="2"/>
</g>
<g id="Group Copy 3">
<path id="Rectangle Copy 25_3" d="M33.4136 77.4297H32.4136V78.4297V88.4297V89.4297H33.4136H43.4136H44.4136V88.4297V78.4297V77.4297H43.4136H33.4136Z" fill="#F3F8FE" stroke="#C3DFF3" stroke-width="2"/>
</g>
<g id="Group Copy 2">
<path id="Rectangle Copy 25_4" d="M17.4136 77.4297H16.4136V78.4297V88.4297V89.4297H17.4136H27.4136H28.4136V88.4297V78.4297V77.4297H27.4136H17.4136Z" fill="#F3F8FE" stroke="#C3DFF3" stroke-width="2"/>
</g>
<g id="Rectangle + Rectangle Copy 96 Mask">
<path id="Mask" fill-rule="evenodd" clip-rule="evenodd" d="M44.4136 14.4297H32.4136V72.4297H44.4136V14.4297ZM16.4136 38.4297H28.4136V72.4297H16.4136V38.4297ZM0.413574 48.4297H12.4136V72.4297H0.413574V48.4297ZM48.4136 24.4297H60.4136V72.4297H48.4136V24.4297ZM76.4136 55.4297H64.4136V72.4297H76.4136V55.4297Z" fill="#4B4EBB"/>
<mask id="mask0" mask-type="alpha" maskUnits="userSpaceOnUse" x="0" y="14" width="77" height="59">
<path id="Mask_2" fill-rule="evenodd" clip-rule="evenodd" d="M44.4136 14.4297H32.4136V72.4297H44.4136V14.4297ZM16.4136 38.4297H28.4136V72.4297H16.4136V38.4297ZM0.413574 48.4297H12.4136V72.4297H0.413574V48.4297ZM48.4136 24.4297H60.4136V72.4297H48.4136V24.4297ZM76.4136 55.4297H64.4136V72.4297H76.4136V55.4297Z" fill="white"/>
</mask>
<g mask="url(#mask0)">
<g id="Rectangle_3" style="mix-blend-mode:multiply" opacity="0.5">
<rect x="-1.5332" y="35.5454" width="104" height="38" transform="rotate(30 -1.5332 35.5454)" fill="#4B4EBB"/>
</g>
<g id="Rectangle Copy" style="mix-blend-mode:multiply" opacity="0.5">
<rect x="32.4668" y="-23.4546" width="104" height="38" transform="rotate(30 32.4668 -23.4546)" fill="#4B4EBB"/>
</g>
<g id="Rectangle Copy 96" style="mix-blend-mode:multiply" opacity="0.5">
<rect x="3.79541" y="85.3345" width="104" height="58" transform="rotate(-45 3.79541 85.3345)" fill="#4B4EBB"/>
</g>
</g>
</g>
<path id="Oval Copy 3" fill-rule="evenodd" clip-rule="evenodd" d="M2.5 33C2.5 30.7909 4.29086 29 6.5 29C8.70914 29 10.5 30.7909 10.5 33C10.5 35.2091 8.70914 37 6.5 37C4.29086 37 2.5 35.2091 2.5 33ZM8.5 33C8.5 31.8954 7.60457 31 6.5 31C5.39543 31 4.5 31.8954 4.5 33C4.5 34.1046 5.39543 35 6.5 35C7.60457 35 8.5 34.1046 8.5 33Z" fill="#C3DFF3"/>
<path id="Oval Copy 4" fill-rule="evenodd" clip-rule="evenodd" d="M89 42C89 39.7909 90.7909 38 93 38C95.2091 38 97 39.7909 97 42C97 44.2091 95.2091 46 93 46C90.7909 46 89 44.2091 89 42ZM95 42C95 40.8954 94.1046 40 93 40C91.8954 40 91 40.8954 91 42C91 43.1046 91.8954 44 93 44C94.1046 44 95 43.1046 95 42Z" fill="#C3DFF3"/>
<path id="Oval Copy 5" fill-rule="evenodd" clip-rule="evenodd" d="M81 58C81 55.7909 82.7909 54 85 54C87.2091 54 89 55.7909 89 58C89 60.2091 87.2091 62 85 62C82.7909 62 81 60.2091 81 58ZM87 58C87 56.8954 86.1046 56 85 56C83.8954 56 83 56.8954 83 58C83 59.1046 83.8954 60 85 60C86.1046 60 87 59.1046 87 58Z" fill="#C3DFF3"/>
<path id="Rectangle_4" fill-rule="evenodd" clip-rule="evenodd" d="M79 48V15H68C65.2386 15 63 17.2386 63 20V53H74C76.7614 53 79 50.7614 79 48ZM68 17H77V48L76.9949 48.1763C76.9037 49.7511 75.5977 51 74 51H65V20L65.0051 19.8237C65.0963 18.2489 66.4023 17 68 17Z" fill="#C3DFF3"/>
<path id="Rectangle Copy 97" fill-rule="evenodd" clip-rule="evenodd" d="M29.4136 25.4297V14.4297H18.4136C16.7567 14.4297 15.4136 15.7728 15.4136 17.4297V28.4297H26.4136C28.0704 28.4297 29.4136 27.0865 29.4136 25.4297ZM18.4136 16.4297L27.4128 16.429L27.4136 25.4297L27.4068 25.5463C27.3491 26.0436 26.9264 26.4297 26.4136 26.4297L17.4128 26.429L17.4136 17.4297L17.4203 17.3131C17.4781 16.8157 17.9007 16.4297 18.4136 16.4297Z" fill="#C3DFF3"/>
<path id="Rectangle Copy 97_2" fill-rule="evenodd" clip-rule="evenodd" d="M25.4136 23.4297V18.4297H20.4136C19.8613 18.4297 19.4136 18.8774 19.4136 19.4297V24.4297H24.4136C24.9659 24.4297 25.4136 23.982 25.4136 23.4297ZM24.4128 19.429L24.4136 23.4297L20.4128 23.429L20.4136 19.4297L24.4128 19.429Z" fill="#C3DFF3"/>
<path id="Rectangle_5" fill-rule="evenodd" clip-rule="evenodd" d="M21.417 28.4297L23.4449 28.4297V38.4297H21.417L21.417 28.4297Z" fill="#C3DFF3"/>
<rect id="Rectangle_6" x="77" y="11" width="2" height="6" fill="#C3DFF3"/>
<rect id="Rectangle_7" x="77" y="15" width="6" height="2" fill="#C3DFF3"/>
<rect id="Rectangle Copy 56" x="85" y="15" width="3" height="2" fill="#C3DFF3"/>
<rect id="Rectangle Copy 57" x="90" y="15" width="2" height="2" fill="#C3DFF3"/>
<rect id="Rectangle Copy 54" x="77" y="6" width="2" height="3" fill="#C3DFF3"/>
<rect id="Rectangle Copy 55" x="77" y="2" width="2" height="2" fill="#C3DFF3"/>
<path id="Rectangle_8" fill-rule="evenodd" clip-rule="evenodd" d="M75 47V19H69C67.8954 19 67 19.8954 67 21V49H73C74.1046 49 75 48.1046 75 47ZM69 20H74V47L73.9933 47.1166C73.9355 47.614 73.5128 48 73 48H68V21L68.0067 20.8834C68.0645 20.386 68.4872 20 69 20Z" fill="#C3DFF3"/>
<path id="Path 8" d="M52 8.01904C54.1422 8.01904 55.8911 9.70301 55.9951 11.8194L56 12.019V23H54V12.019C54 10.9647 53.1841 10.1009 52.1493 10.0245L52 10.019H25C23.9456 10.019 23.0818 10.8349 23.0055 11.8698L23 12.019V15.9954H21V12.019C21 9.87685 22.684 8.12796 24.8004 8.02394L25 8.01904H52Z" fill="#C3DFF3"/>
<rect id="Rectangle_9" x="49" y="22" width="12" height="1" fill="#C3DFF3"/>
<path id="Rectangle_10" fill-rule="evenodd" clip-rule="evenodd" d="M41.4136 86.4297V80.4297H35.4136V86.4297H41.4136ZM36.4128 81.429H40.4128V85.429H36.4128V81.429Z" fill="#C3DFF3"/>
</g>
</svg>
